<?xml version="1.0" encoding="utf-8" standalone="no"?>
<!DOCTYPE svg PUBLIC "-//W3C//DTD SVG 1.1//EN"
  "http://www.w3.org/Graphics/SVG/1.1/DTD/svg11.dtd">
<!-- Created with matplotlib (https://matplotlib.org/) -->
<svg height="288pt" version="1.1" viewBox="0 0 432 288" width="432pt" xmlns="http://www.w3.org/2000/svg" xmlns:xlink="http://www.w3.org/1999/xlink">
 <metadata>
  <rdf:RDF xmlns:cc="http://creativecommons.org/ns#" xmlns:dc="http://purl.org/dc/elements/1.1/" xmlns:rdf="http://www.w3.org/1999/02/22-rdf-syntax-ns#">
   <cc:Work>
    <dc:type rdf:resource="http://purl.org/dc/dcmitype/StillImage"/>
    <dc:date>2022-03-23T17:52:53.641851</dc:date>
    <dc:format>image/svg+xml</dc:format>
    <dc:creator>
     <cc:Agent>
      <dc:title>Matplotlib v3.3.4, https://matplotlib.org/</dc:title>
     </cc:Agent>
    </dc:creator>
   </cc:Work>
  </rdf:RDF>
 </metadata>
 <defs>
  <style type="text/css">*{stroke-linecap:butt;stroke-linejoin:round;}</style>
 </defs>
 <g id="figure_1">
  <g id="patch_1">
   <path d="M 0 288 
L 432 288 
L 432 0 
L 0 0 
z
" style="fill:none;"/>
  </g>
  <g id="axes_1">
   <g id="patch_2">
    <path d="M 54 252 
L 388.8 252 
L 388.8 34.56 
L 54 34.56 
z
" style="fill:#ffffff;"/>
   </g>
   <g id="patch_3">
    <path clip-path="url(#p30b6670807)" d="M 72.445529 102.51 
L 75.672876 109.305 
L 72.470354 109.305 
L 72.470354 238.41 
L 72.420703 238.41 
L 72.420703 109.305 
L 69.218182 109.305 
z
" style="fill:#0000ff;stroke:#0000ff;stroke-linejoin:miter;"/>
   </g>
   <g id="patch_4">
    <path clip-path="url(#p30b6670807)" d="M 122.097019 102.51 
L 125.324366 109.305 
L 122.121845 109.305 
L 122.121845 238.41 
L 122.072193 238.41 
L 122.072193 109.305 
L 118.869672 109.305 
z
" style="fill:#0000ff;stroke:#0000ff;stroke-linejoin:miter;"/>
   </g>
   <g id="patch_5">
    <path clip-path="url(#p30b6670807)" d="M 171.74851 102.51 
L 174.975856 109.305 
L 171.773335 109.305 
L 171.773335 238.41 
L 171.723684 238.41 
L 171.723684 109.305 
L 168.521163 109.305 
z
" style="fill:#0000ff;stroke:#0000ff;stroke-linejoin:miter;"/>
   </g>
   <g id="patch_6">
    <path clip-path="url(#p30b6670807)" d="M 221.4 102.51 
L 224.627347 109.305 
L 221.424826 109.305 
L 221.424826 238.41 
L 221.375174 238.41 
L 221.375174 109.305 
L 218.172653 109.305 
z
" style="fill:#0000ff;stroke:#0000ff;stroke-linejoin:miter;"/>
   </g>
   <g id="patch_7">
    <path clip-path="url(#p30b6670807)" d="M 271.05149 102.51 
L 274.278837 109.305 
L 271.076316 109.305 
L 271.076316 238.41 
L 271.026665 238.41 
L 271.026665 109.305 
L 267.824144 109.305 
z
" style="fill:#0000ff;stroke:#0000ff;stroke-linejoin:miter;"/>
   </g>
   <g id="patch_8">
    <path clip-path="url(#p30b6670807)" d="M 320.702981 102.51 
L 323.930328 109.305 
L 320.727807 109.305 
L 320.727807 238.41 
L 320.678155 238.41 
L 320.678155 109.305 
L 317.475634 109.305 
z
" style="fill:#0000ff;stroke:#0000ff;stroke-linejoin:miter;"/>
   </g>
   <g id="patch_9">
    <path clip-path="url(#p30b6670807)" d="M 370.354471 102.51 
L 373.581818 109.305 
L 370.379297 109.305 
L 370.379297 238.41 
L 370.329646 238.41 
L 370.329646 109.305 
L 367.127124 109.305 
z
" style="fill:#0000ff;stroke:#0000ff;stroke-linejoin:miter;"/>
   </g>
   <g id="matplotlib.axis_1">
    <g id="xtick_1">
     <g id="line2d_1">
      <defs>
       <path d="M 0 0 
L 0 3.5 
" id="ma4e957b647" style="stroke:#000000;stroke-width:0.8;"/>
      </defs>
      <g>
       <use style="stroke:#000000;stroke-width:0.8;" x="72.445529" xlink:href="#ma4e957b647" y="252"/>
      </g>
     </g>
     <g id="text_1">
      <!-- $-3b$ -->
      <g transform="translate(61.895529 266.598437)">
       <text>
        <tspan style="font-family:DejaVu Sans;font-size:10px;font-style:book;font-weight:book;" x="0 8.378906" y="-0.40625">−3</tspan>
        <tspan style="font-family:DejaVu Sans;font-size:10px;font-style:oblique;font-weight:oblique;" x="14.741211" y="-0.40625">b</tspan>
       </text>
      </g>
     </g>
    </g>
    <g id="xtick_2">
     <g id="line2d_2">
      <g>
       <use style="stroke:#000000;stroke-width:0.8;" x="122.097019" xlink:href="#ma4e957b647" y="252"/>
      </g>
     </g>
     <g id="text_2">
      <!-- $-2b$ -->
      <g transform="translate(111.547019 266.598437)">
       <text>
        <tspan style="font-family:DejaVu Sans;font-size:10px;font-style:book;font-weight:book;" x="0 8.378906" y="-0.40625">−2</tspan>
        <tspan style="font-family:DejaVu Sans;font-size:10px;font-style:oblique;font-weight:oblique;" x="14.741211" y="-0.40625">b</tspan>
       </text>
      </g>
     </g>
    </g>
    <g id="xtick_3">
     <g id="line2d_3">
      <g>
       <use style="stroke:#000000;stroke-width:0.8;" x="171.74851" xlink:href="#ma4e957b647" y="252"/>
      </g>
     </g>
     <g id="text_3">
      <!-- $-1b$ -->
      <g transform="translate(161.19851 266.598437)">
       <text>
        <tspan style="font-family:DejaVu Sans;font-size:10px;font-style:book;font-weight:book;" x="0 8.378906" y="-0.40625">−1</tspan>
        <tspan style="font-family:DejaVu Sans;font-size:10px;font-style:oblique;font-weight:oblique;" x="14.741211" y="-0.40625">b</tspan>
       </text>
      </g>
     </g>
    </g>
    <g id="xtick_4">
     <g id="line2d_4">
      <g>
       <use style="stroke:#000000;stroke-width:0.8;" x="221.4" xlink:href="#ma4e957b647" y="252"/>
      </g>
     </g>
     <g id="text_4">
      <!-- $0b$ -->
      <g transform="translate(215 266.598437)">
       <text>
        <tspan style="font-family:DejaVu Sans;font-size:10px;font-style:book;font-weight:book;" x="0" y="-0.40625">0</tspan>
        <tspan style="font-family:DejaVu Sans;font-size:10px;font-style:oblique;font-weight:oblique;" x="6.362305" y="-0.40625">b</tspan>
       </text>
      </g>
     </g>
    </g>
    <g id="xtick_5">
     <g id="line2d_5">
      <g>
       <use style="stroke:#000000;stroke-width:0.8;" x="271.05149" xlink:href="#ma4e957b647" y="252"/>
      </g>
     </g>
     <g id="text_5">
      <!-- $1b$ -->
      <g transform="translate(264.65149 266.598437)">
       <text>
        <tspan style="font-family:DejaVu Sans;font-size:10px;font-style:book;font-weight:book;" x="0" y="-0.40625">1</tspan>
        <tspan style="font-family:DejaVu Sans;font-size:10px;font-style:oblique;font-weight:oblique;" x="6.362305" y="-0.40625">b</tspan>
       </text>
      </g>
     </g>
    </g>
    <g id="xtick_6">
     <g id="line2d_6">
      <g>
       <use style="stroke:#000000;stroke-width:0.8;" x="320.702981" xlink:href="#ma4e957b647" y="252"/>
      </g>
     </g>
     <g id="text_6">
      <!-- $2b$ -->
      <g transform="translate(314.302981 266.598437)">
       <text>
        <tspan style="font-family:DejaVu Sans;font-size:10px;font-style:book;font-weight:book;" x="0" y="-0.40625">2</tspan>
        <tspan style="font-family:DejaVu Sans;font-size:10px;font-style:oblique;font-weight:oblique;" x="6.362305" y="-0.40625">b</tspan>
       </text>
      </g>
     </g>
    </g>
    <g id="xtick_7">
     <g id="line2d_7">
      <g>
       <use style="stroke:#000000;stroke-width:0.8;" x="370.354471" xlink:href="#ma4e957b647" y="252"/>
      </g>
     </g>
     <g id="text_7">
      <!-- $3b$ -->
      <g transform="translate(363.954471 266.598437)">
       <text>
        <tspan style="font-family:DejaVu Sans;font-size:10px;font-style:book;font-weight:book;" x="0" y="-0.40625">3</tspan>
        <tspan style="font-family:DejaVu Sans;font-size:10px;font-style:oblique;font-weight:oblique;" x="6.362305" y="-0.40625">b</tspan>
       </text>
      </g>
     </g>
    </g>
   </g>
   <g id="matplotlib.axis_2">
    <g id="ytick_1">
     <g id="line2d_8">
      <defs>
       <path d="M 0 0 
L -3.5 0 
" id="m5ab857aa4a" style="stroke:#000000;stroke-width:0.8;"/>
      </defs>
      <g>
       <use style="stroke:#000000;stroke-width:0.8;" x="54" xlink:href="#m5ab857aa4a" y="238.41"/>
      </g>
     </g>
     <g id="text_8">
      <!-- $0$ -->
      <g transform="translate(40.6 242.209219)">
       <text>
        <tspan style="font-family:DejaVu Sans;font-size:10px;font-style:book;font-weight:book;" x="0" y="-0.578125">0</tspan>
       </text>
      </g>
     </g>
    </g>
    <g id="ytick_2">
     <g id="line2d_9">
      <g>
       <use style="stroke:#000000;stroke-width:0.8;" x="54" xlink:href="#m5ab857aa4a" y="102.51"/>
      </g>
     </g>
     <g id="text_9">
      <!-- $ab$ -->
      <g transform="translate(34.5 106.309219)">
       <text>
        <tspan style="font-family:DejaVu Sans;font-size:10px;font-style:oblique;font-weight:oblique;" x="0 6.12793" y="-0.40625">ab</tspan>
       </text>
      </g>
     </g>
    </g>
   </g>
   <g id="patch_10">
    <path d="M 54 252 
L 54 34.56 
" style="fill:none;stroke:#000000;stroke-linecap:square;stroke-linejoin:miter;stroke-width:0.8;"/>
   </g>
   <g id="patch_11">
    <path d="M 388.8 252 
L 388.8 34.56 
" style="fill:none;stroke:#000000;stroke-linecap:square;stroke-linejoin:miter;stroke-width:0.8;"/>
   </g>
   <g id="patch_12">
    <path d="M 54 252 
L 388.8 252 
" style="fill:none;stroke:#000000;stroke-linecap:square;stroke-linejoin:miter;stroke-width:0.8;"/>
   </g>
   <g id="patch_13">
    <path d="M 54 34.56 
L 388.8 34.56 
" style="fill:none;stroke:#000000;stroke-linecap:square;stroke-linejoin:miter;stroke-width:0.8;"/>
   </g>
   <g id="legend_1">
    <g id="patch_14">
     <path d="M 318 60.06 
L 381.8 60.06 
Q 383.8 60.06 383.8 58.06 
L 383.8 41.56 
Q 383.8 39.56 381.8 39.56 
L 318 39.56 
Q 316 39.56 316 41.56 
L 316 58.06 
Q 316 60.06 318 60.06 
z
" style="fill:#ffffff;opacity:0.8;stroke:#cccccc;stroke-linejoin:miter;"/>
    </g>
    <g id="patch_15">
     <path d="M 320 51.86 
L 340 51.86 
L 340 44.86 
L 320 44.86 
z
" style="fill:#0000ff;stroke:#0000ff;stroke-linejoin:miter;"/>
    </g>
    <g id="text_10">
     <!-- $a\ \mathrm{III}(\frac{x}{b})$ -->
     <g transform="translate(348 51.86)">
      <text>
       <tspan style="font-family:DejaVu Sans;font-size:10px;font-style:oblique;font-weight:oblique;" x="0" y="-0.7890625">a</tspan>
       <tspan style="font-family:DejaVu Sans;font-size:10px;font-style:book;font-weight:book;" x="9.374968 12.324186 15.273405 18.222624 27.81735" y="-0.7890625">III()</tspan>
       <tspan style="font-family:DejaVu Sans;font-size:7px;font-style:oblique;font-weight:oblique;" x="22.123991 22.123991" y="-5.171875 3.2687500000000007">xb</tspan>
      </text>
      <rect height="0.625" width="4.443359" x="22.123991" y="-3.671875"/>
     </g>
    </g>
   </g>
  </g>
 </g>
 <defs>
  <clipPath id="p30b6670807">
   <rect height="217.44" width="334.8" x="54" y="34.56"/>
  </clipPath>
 </defs>
</svg>
