<?xml version="1.0" encoding="utf-8" standalone="no"?>
<!DOCTYPE svg PUBLIC "-//W3C//DTD SVG 1.1//EN"
  "http://www.w3.org/Graphics/SVG/1.1/DTD/svg11.dtd">
<!-- Created with matplotlib (https://matplotlib.org/) -->
<svg height="288pt" version="1.1" viewBox="0 0 432 288" width="432pt" xmlns="http://www.w3.org/2000/svg" xmlns:xlink="http://www.w3.org/1999/xlink">
 <metadata>
  <rdf:RDF xmlns:cc="http://creativecommons.org/ns#" xmlns:dc="http://purl.org/dc/elements/1.1/" xmlns:rdf="http://www.w3.org/1999/02/22-rdf-syntax-ns#">
   <cc:Work>
    <dc:type rdf:resource="http://purl.org/dc/dcmitype/StillImage"/>
    <dc:date>2022-03-23T10:52:48.107744</dc:date>
    <dc:format>image/svg+xml</dc:format>
    <dc:creator>
     <cc:Agent>
      <dc:title>Matplotlib v3.3.4, https://matplotlib.org/</dc:title>
     </cc:Agent>
    </dc:creator>
   </cc:Work>
  </rdf:RDF>
 </metadata>
 <defs>
  <style type="text/css">*{stroke-linecap:butt;stroke-linejoin:round;}</style>
 </defs>
 <g id="figure_1">
  <g id="patch_1">
   <path d="M 0 288 
L 432 288 
L 432 0 
L 0 0 
z
" style="fill:none;"/>
  </g>
  <g id="axes_1">
   <g id="patch_2">
    <path d="M 54 252 
L 388.8 252 
L 388.8 34.56 
L 54 34.56 
z
" style="fill:#ffffff;"/>
   </g>
   <g id="PathCollection_1">
    <defs>
     <path d="M 0 3 
C 0.795609 3 1.55874 2.683901 2.12132 2.12132 
C 2.683901 1.55874 3 0.795609 3 0 
C 3 -0.795609 2.683901 -1.55874 2.12132 -2.12132 
C 1.55874 -2.683901 0.795609 -3 0 -3 
C -0.795609 -3 -1.55874 -2.683901 -2.12132 -2.12132 
C -2.683901 -1.55874 -3 -0.795609 -3 0 
C -3 0.795609 -2.683901 1.55874 -2.12132 2.12132 
C -1.55874 2.683901 -0.795609 3 0 3 
z
" id="mc4b8cd5fd5" style="stroke:#1f77b4;"/>
    </defs>
    <g clip-path="url(#p7648310566)">
     <use style="fill:#1f77b4;stroke:#1f77b4;" x="137.7" xlink:href="#mc4b8cd5fd5" y="223.638261"/>
     <use style="fill:#1f77b4;stroke:#1f77b4;" x="221.4" xlink:href="#mc4b8cd5fd5" y="129.09913"/>
     <use style="fill:#1f77b4;stroke:#1f77b4;" x="305.1" xlink:href="#mc4b8cd5fd5" y="223.638261"/>
    </g>
   </g>
   <g id="matplotlib.axis_1"/>
   <g id="matplotlib.axis_2"/>
   <g id="line2d_1">
    <path clip-path="url(#p7648310566)" d="M 137.7 223.638261 
L 137.7 129.09913 
L 305.1 129.09913 
L 305.1 223.638261 
" style="fill:none;stroke:#1f77b4;stroke-linecap:square;stroke-width:1.5;"/>
   </g>
   <g id="line2d_2">
    <path clip-path="url(#p7648310566)" d="M 54 223.638261 
L 388.8 223.638261 
" style="fill:none;stroke:#000000;stroke-linecap:square;stroke-width:1.5;"/>
   </g>
   <g id="line2d_3">
    <path clip-path="url(#p7648310566)" d="M 221.4 252 
L 221.4 34.56 
" style="fill:none;stroke:#000000;stroke-linecap:square;stroke-width:1.5;"/>
   </g>
   <g id="patch_3">
    <path d="M 54 252 
L 54 34.56 
" style="fill:none;stroke:#000000;stroke-linecap:square;stroke-linejoin:miter;stroke-width:0.8;"/>
   </g>
   <g id="patch_4">
    <path d="M 388.8 252 
L 388.8 34.56 
" style="fill:none;stroke:#000000;stroke-linecap:square;stroke-linejoin:miter;stroke-width:0.8;"/>
   </g>
   <g id="patch_5">
    <path d="M 54 252 
L 388.8 252 
" style="fill:none;stroke:#000000;stroke-linecap:square;stroke-linejoin:miter;stroke-width:0.8;"/>
   </g>
   <g id="patch_6">
    <path d="M 54 34.56 
L 388.8 34.56 
" style="fill:none;stroke:#000000;stroke-linecap:square;stroke-linejoin:miter;stroke-width:0.8;"/>
   </g>
   <g id="text_1">
    <!-- $c$ -->
    <g transform="translate(225.585 124.372174)">
     <text>
      <tspan style="font-family:DejaVu Sans;font-size:10px;font-style:oblique;font-weight:oblique;" x="0" y="-0.40625">c</tspan>
     </text>
    </g>
   </g>
   <g id="text_2">
    <!-- $d / 2$ -->
    <g transform="translate(309.285 218.911304)">
     <text>
      <tspan style="font-family:DejaVu Sans;font-size:10px;font-style:oblique;font-weight:oblique;" x="0" y="-0.40625">d</tspan>
      <tspan style="font-family:DejaVu Sans;font-size:10px;font-style:book;font-weight:book;" x="6.347656 9.341797" y="-0.40625">/2</tspan>
     </text>
    </g>
   </g>
   <g id="text_3">
    <!-- $-d / 2$ -->
    <g transform="translate(141.885 218.911304)">
     <text>
      <tspan style="font-family:DejaVu Sans;font-size:10px;font-style:book;font-weight:book;" x="0 14.726562 17.720703" y="-0.40625">−/2</tspan>
      <tspan style="font-family:DejaVu Sans;font-size:10px;font-style:oblique;font-weight:oblique;" x="8.378906" y="-0.40625">d</tspan>
     </text>
    </g>
   </g>
   <g id="legend_1">
    <g id="patch_7">
     <path d="M 307.9 62.96 
L 381.8 62.96 
Q 383.8 62.96 383.8 60.96 
L 383.8 41.56 
Q 383.8 39.56 381.8 39.56 
L 307.9 39.56 
Q 305.9 39.56 305.9 41.56 
L 305.9 60.96 
Q 305.9 62.96 307.9 62.96 
z
" style="fill:#ffffff;opacity:0.8;stroke:#cccccc;stroke-linejoin:miter;"/>
    </g>
    <g id="line2d_4">
     <path d="M 309.9 51.26 
L 329.9 51.26 
" style="fill:none;stroke:#1f77b4;stroke-linecap:square;stroke-width:1.5;"/>
    </g>
    <g id="line2d_5"/>
    <g id="text_4">
     <!-- $c$ rect$(\frac{\xi}{d})$ -->
     <g transform="translate(337.9 54.76)">
      <text>
       <tspan style="font-family:DejaVu Sans;font-size:10px;font-style:oblique;font-weight:oblique;" x="0" y="-0.8359375">c</tspan>
       <tspan style="font-family:DejaVu Sans;font-size:10px;font-style:book;font-weight:book;" x="5.498047 8.676758 12.788086 18.94043 24.438477 28.359375 37.954102" y="-0.8359375"> rect()</tspan>
       <tspan style="font-family:DejaVu Sans;font-size:7px;font-style:oblique;font-weight:oblique;" x="32.260742 32.260742" y="-6.684375 3.2218750000000007">ξd</tspan>
      </text>
      <rect height="0.625" width="4.443359" x="32.260742" y="-3.71875"/>
     </g>
    </g>
   </g>
  </g>
 </g>
 <defs>
  <clipPath id="p7648310566">
   <rect height="217.44" width="334.8" x="54" y="34.56"/>
  </clipPath>
 </defs>
</svg>
