<?xml version="1.0" encoding="utf-8" standalone="no"?>
<!DOCTYPE svg PUBLIC "-//W3C//DTD SVG 1.1//EN"
  "http://www.w3.org/Graphics/SVG/1.1/DTD/svg11.dtd">
<!-- Created with matplotlib (https://matplotlib.org/) -->
<svg height="288pt" version="1.1" viewBox="0 0 432 288" width="432pt" xmlns="http://www.w3.org/2000/svg" xmlns:xlink="http://www.w3.org/1999/xlink">
 <metadata>
  <rdf:RDF xmlns:cc="http://creativecommons.org/ns#" xmlns:dc="http://purl.org/dc/elements/1.1/" xmlns:rdf="http://www.w3.org/1999/02/22-rdf-syntax-ns#">
   <cc:Work>
    <dc:type rdf:resource="http://purl.org/dc/dcmitype/StillImage"/>
    <dc:date>2022-03-23T10:53:13.849051</dc:date>
    <dc:format>image/svg+xml</dc:format>
    <dc:creator>
     <cc:Agent>
      <dc:title>Matplotlib v3.3.4, https://matplotlib.org/</dc:title>
     </cc:Agent>
    </dc:creator>
   </cc:Work>
  </rdf:RDF>
 </metadata>
 <defs>
  <style type="text/css">*{stroke-linecap:butt;stroke-linejoin:round;}</style>
 </defs>
 <g id="figure_1">
  <g id="patch_1">
   <path d="M 0 288 
L 432 288 
L 432 0 
L 0 0 
z
" style="fill:none;"/>
  </g>
  <g id="axes_1">
   <g id="patch_2">
    <path d="M 54 252 
L 388.8 252 
L 388.8 34.56 
L 54 34.56 
z
" style="fill:#ffffff;"/>
   </g>
   <g id="PathCollection_1">
    <defs>
     <path d="M 0 3 
C 0.795609 3 1.55874 2.683901 2.12132 2.12132 
C 2.683901 1.55874 3 0.795609 3 0 
C 3 -0.795609 2.683901 -1.55874 2.12132 -2.12132 
C 1.55874 -2.683901 0.795609 -3 0 -3 
C -0.795609 -3 -1.55874 -2.683901 -2.12132 -2.12132 
C -2.683901 -1.55874 -3 -0.795609 -3 0 
C -3 0.795609 -2.683901 1.55874 -2.12132 2.12132 
C -1.55874 2.683901 -0.795609 3 0 3 
z
" id="m67c080b77d" style="stroke:#1f77b4;"/>
    </defs>
    <g clip-path="url(#pf31eb540e2)">
     <use style="fill:#1f77b4;stroke:#1f77b4;" x="224.505751" xlink:href="#m67c080b77d" y="63.552"/>
     <use style="fill:#1f77b4;stroke:#1f77b4;" x="286.620779" xlink:href="#m67c080b77d" y="208.512"/>
     <use style="fill:#1f77b4;stroke:#1f77b4;" x="162.390724" xlink:href="#m67c080b77d" y="208.512"/>
    </g>
   </g>
   <g id="matplotlib.axis_1"/>
   <g id="matplotlib.axis_2"/>
   <g id="line2d_1">
    <path clip-path="url(#pf31eb540e2)" d="M 69.218182 190.05512 
L 75.429685 190.227066 
L 81.641187 192.281641 
L 87.85269 196.183952 
L 94.064193 201.722131 
L 100.275696 208.512 
L 106.487199 216.016592 
L 112.698701 223.579614 
L 118.910204 230.47072 
L 125.121707 235.939401 
L 131.33321 239.273467 
L 137.544712 239.857601 
L 143.756215 237.22725 
L 149.967718 231.113421 
L 156.179221 221.474477 
L 162.390724 208.512 
L 168.602226 192.668973 
L 174.813729 174.609868 
L 181.025232 155.183679 
L 187.236735 135.372265 
L 193.448237 116.227598 
L 199.65974 98.802397 
L 205.871243 84.079251 
L 212.082746 72.903473 
L 218.294249 65.924757 
L 224.505751 63.552 
L 230.717254 65.924757 
L 236.928757 72.903473 
L 243.14026 84.079251 
L 249.351763 98.802397 
L 255.563265 116.227598 
L 261.774768 135.372265 
L 267.986271 155.183679 
L 274.197774 174.609868 
L 280.409276 192.668973 
L 286.620779 208.512 
L 292.832282 221.474477 
L 299.043785 231.113421 
L 305.255288 237.22725 
L 311.46679 239.857601 
L 317.678293 239.273467 
L 323.889796 235.939401 
L 330.101299 230.47072 
L 336.312801 223.579614 
L 342.524304 216.016592 
L 348.735807 208.512 
L 354.94731 201.722131 
L 361.158813 196.183952 
L 367.370315 192.281641 
L 373.581818 190.227066 
" style="fill:none;stroke:#1f77b4;stroke-linecap:square;stroke-width:1.5;"/>
   </g>
   <g id="line2d_2">
    <path clip-path="url(#pf31eb540e2)" d="M 54 208.512 
L 388.8 208.512 
" style="fill:none;stroke:#000000;stroke-linecap:square;stroke-width:1.5;"/>
   </g>
   <g id="line2d_3">
    <path clip-path="url(#pf31eb540e2)" d="M 224.505751 252 
L 224.505751 34.56 
" style="fill:none;stroke:#000000;stroke-linecap:square;stroke-width:1.5;"/>
   </g>
   <g id="line2d_4">
    <path clip-path="url(#pf31eb540e2)" d="M 162.390724 208.512 
L 224.505751 63.552 
L 286.620779 208.512 
L 162.390724 208.512 
" style="fill:none;stroke:#ff7f0e;stroke-linecap:square;stroke-width:1.5;"/>
   </g>
   <g id="patch_3">
    <path d="M 54 252 
L 54 34.56 
" style="fill:none;stroke:#000000;stroke-linecap:square;stroke-linejoin:miter;stroke-width:0.8;"/>
   </g>
   <g id="patch_4">
    <path d="M 388.8 252 
L 388.8 34.56 
" style="fill:none;stroke:#000000;stroke-linecap:square;stroke-linejoin:miter;stroke-width:0.8;"/>
   </g>
   <g id="patch_5">
    <path d="M 54 252 
L 388.8 252 
" style="fill:none;stroke:#000000;stroke-linecap:square;stroke-linejoin:miter;stroke-width:0.8;"/>
   </g>
   <g id="patch_6">
    <path d="M 54 34.56 
L 388.8 34.56 
" style="fill:none;stroke:#000000;stroke-linecap:square;stroke-linejoin:miter;stroke-width:0.8;"/>
   </g>
   <g id="text_1">
    <!-- $a$ -->
    <g transform="translate(227.611503 56.304)">
     <text>
      <tspan style="font-family:DejaVu Sans;font-size:10px;font-style:oblique;font-weight:oblique;" x="0" y="-0.40625">a</tspan>
     </text>
    </g>
   </g>
   <g id="text_2">
    <!-- $b$ -->
    <g transform="translate(289.726531 201.264)">
     <text>
      <tspan style="font-family:DejaVu Sans;font-size:10px;font-style:oblique;font-weight:oblique;" x="0" y="-0.40625">b</tspan>
     </text>
    </g>
   </g>
   <g id="text_3">
    <!-- $-b$ -->
    <g transform="translate(165.496475 201.264)">
     <text>
      <tspan style="font-family:DejaVu Sans;font-size:10px;font-style:book;font-weight:book;" x="0" y="-0.40625">−</tspan>
      <tspan style="font-family:DejaVu Sans;font-size:10px;font-style:oblique;font-weight:oblique;" x="8.378906" y="-0.40625">b</tspan>
     </text>
    </g>
   </g>
   <g id="legend_1">
    <g id="patch_7">
     <path d="M 307.1 60.06 
L 381.8 60.06 
Q 383.8 60.06 383.8 58.06 
L 383.8 41.56 
Q 383.8 39.56 381.8 39.56 
L 307.1 39.56 
Q 305.1 39.56 305.1 41.56 
L 305.1 58.06 
Q 305.1 60.06 307.1 60.06 
z
" style="fill:#ffffff;opacity:0.8;stroke:#cccccc;stroke-linejoin:miter;"/>
    </g>
    <g id="line2d_5">
     <path d="M 309.1 48.36 
L 329.1 48.36 
" style="fill:none;stroke:#1f77b4;stroke-linecap:square;stroke-width:1.5;"/>
    </g>
    <g id="line2d_6"/>
    <g id="text_4">
     <!-- $a$ sinc$(\frac{x}{b})$ -->
     <g transform="translate(337.1 51.86)">
      <text>
       <tspan style="font-family:DejaVu Sans;font-size:10px;font-style:oblique;font-weight:oblique;" x="0" y="-0.7890625">a</tspan>
       <tspan style="font-family:DejaVu Sans;font-size:10px;font-style:book;font-weight:book;" x="6.12793 9.306641 14.516602 17.294922 23.632812 29.130859 38.725586" y="-0.7890625"> sinc()</tspan>
       <tspan style="font-family:DejaVu Sans;font-size:7px;font-style:oblique;font-weight:oblique;" x="33.032227 33.032227" y="-5.171875 3.2687500000000007">xb</tspan>
      </text>
      <rect height="0.625" width="4.443359" x="33.032227" y="-3.671875"/>
     </g>
    </g>
   </g>
  </g>
 </g>
 <defs>
  <clipPath id="pf31eb540e2">
   <rect height="217.44" width="334.8" x="54" y="34.56"/>
  </clipPath>
 </defs>
</svg>
